<svg version="1.1" id="Layer_1" xmlns="http://www.w3.org/2000/svg" xmlns:xlink="http://www.w3.org/1999/xlink" x="0px" y="0px"
	 width="100%" viewBox="0 0 678 582" enable-background="new 0 0 678 582" xml:space="preserve">
<path fill="#FFFFFF" opacity="1.000000" stroke="none" 
	d="
M408.000000,583.000000 
	C272.000031,583.000000 136.500046,583.000000 1.000055,583.000000 
	C1.000036,389.000061 1.000036,195.000122 1.000018,1.000133 
	C226.999893,1.000088 452.999786,1.000088 678.999756,1.000044 
	C678.999878,194.999863 678.999878,388.999725 678.999939,582.999756 
	C588.833313,583.000000 498.666656,583.000000 408.000000,583.000000 
M606.500000,518.999512 
	C616.931152,518.999512 627.362305,518.999512 637.753784,518.999512 
	C637.753784,370.651947 637.753784,222.952820 637.753784,75.147530 
	C636.796692,75.056801 636.152771,74.942482 635.508911,74.942322 
	C592.520569,74.931511 549.531982,74.882118 506.544647,75.087502 
	C504.660614,75.096504 502.121674,77.020538 501.006256,78.766907 
	C463.280212,137.833344 425.667969,196.972580 388.166168,256.181610 
	C386.763763,258.395782 385.994293,261.410217 385.990753,264.053131 
	C385.878998,347.197144 385.899078,430.341309 385.899078,513.485474 
	C385.899078,515.238403 385.899078,516.991272 385.899078,518.999512 
	C459.579071,518.999512 532.539551,518.999512 606.500000,518.999512 
M37.958141,128.500000 
	C37.958145,158.662918 37.880333,188.826355 38.075729,218.988007 
	C38.095779,222.083054 39.089474,225.585449 40.741474,228.196472 
	C100.469925,322.598267 160.329544,416.917114 220.180923,511.241089 
	C221.050140,512.610962 222.044647,513.901367 223.293518,515.672485 
	C224.484680,513.966125 225.448608,512.686523 226.307770,511.339996 
	C273.325562,437.653534 320.313141,363.947693 367.419678,290.318024 
	C369.392761,287.234039 369.554382,285.187469 367.540253,281.991547 
	C324.934448,214.384964 282.445160,146.704849 240.049988,78.965942 
	C238.123718,75.888176 236.121735,74.834679 232.525726,74.841408 
	C169.534424,74.959236 106.542862,74.926544 43.551350,74.926552 
	C41.788368,74.926552 40.025383,74.926559 37.958130,74.926559 
	C37.958130,92.888351 37.958130,110.194176 37.958141,128.500000 
M47.534863,519.002319 
	C91.922615,519.002319 136.310364,519.002319 181.747681,519.002319 
	C133.586487,442.954895 85.966751,367.762482 37.665901,291.494537 
	C37.665901,368.221985 37.665901,443.491882 37.665901,519.002319 
	C40.904984,519.002319 43.728054,519.002319 47.534863,519.002319 
z"/>
<path fill="#D04144" opacity="1.000000" stroke="none" 
	d="
M606.000000,518.999512 
	C532.539551,518.999512 459.579071,518.999512 385.899078,518.999512 
	C385.899078,516.991272 385.899078,515.238403 385.899078,513.485474 
	C385.899078,430.341309 385.878998,347.197144 385.990753,264.053131 
	C385.994293,261.410217 386.763763,258.395782 388.166168,256.181610 
	C425.667969,196.972580 463.280212,137.833344 501.006256,78.766907 
	C502.121674,77.020538 504.660614,75.096504 506.544647,75.087502 
	C549.531982,74.882118 592.520569,74.931511 635.508911,74.942322 
	C636.152771,74.942482 636.796692,75.056801 637.753784,75.147530 
	C637.753784,222.952820 637.753784,370.651947 637.753784,518.999512 
	C627.362305,518.999512 616.931152,518.999512 606.000000,518.999512 
z"/>
<path fill="#D04144" opacity="1.000000" stroke="none" 
	d="
M37.958138,128.000000 
	C37.958130,110.194176 37.958130,92.888351 37.958130,74.926559 
	C40.025383,74.926559 41.788368,74.926552 43.551350,74.926552 
	C106.542862,74.926544 169.534424,74.959236 232.525726,74.841408 
	C236.121735,74.834679 238.123718,75.888176 240.049988,78.965942 
	C282.445160,146.704849 324.934448,214.384964 367.540253,281.991547 
	C369.554382,285.187469 369.392761,287.234039 367.419678,290.318024 
	C320.313141,363.947693 273.325562,437.653534 226.307770,511.339996 
	C225.448608,512.686523 224.484680,513.966125 223.293518,515.672485 
	C222.044647,513.901367 221.050140,512.610962 220.180923,511.241089 
	C160.329544,416.917114 100.469925,322.598267 40.741474,228.196472 
	C39.089474,225.585449 38.095779,222.083054 38.075729,218.988007 
	C37.880333,188.826355 37.958145,158.662918 37.958138,128.000000 
z"/>
<path fill="#D04245" opacity="1.000000" stroke="none" 
	d="
M47.042992,519.002319 
	C43.728054,519.002319 40.904984,519.002319 37.665901,519.002319 
	C37.665901,443.491882 37.665901,368.221985 37.665901,291.494537 
	C85.966751,367.762482 133.586487,442.954895 181.747681,519.002319 
	C136.310364,519.002319 91.922615,519.002319 47.042992,519.002319 
z"/>
</svg>