<?xml version="1.0" standalone="no"?>
<!DOCTYPE svg PUBLIC "-//W3C//DTD SVG 20010904//EN"
 "http://www.w3.org/TR/2001/REC-SVG-20010904/DTD/svg10.dtd">
<svg version="1.0" xmlns="http://www.w3.org/2000/svg"
 width="678.000000pt" height="582.000000pt" viewBox="0 0 678.000000 582.000000"
 preserveAspectRatio="xMidYMid meet">

<g transform="translate(0.000000,582.000000) scale(0.100000,-0.100000)"
fill="#000000" stroke="none">
<path d="M370 4337 l0 -743 916 -1445 c504 -794 922 -1450 928 -1457 10 -10
161 221 739 1127 400 626 727 1145 726 1153 0 7 -296 483 -657 1058 l-657
1045 -998 3 -997 2 0 -743z"/>
<path d="M4438 4155 l-588 -924 0 -1296 0 -1295 1260 0 1260 0 0 2220 0 2220
-672 0 -673 0 -587 -925z"/>
<path d="M370 1772 l0 -1132 716 0 716 0 -19 32 c-23 38 -1404 2221 -1409
2227 -2 2 -4 -505 -4 -1127z"/>
</g>
</svg>
